PathFileType	4	(X/Y/Z)	C:\Users\Alexander Denk\OneDrive - Universitaet Duisburg-Essen\Dokumente\GitHub\artisynth_dissertation_models\src\artisynth\models\gait_model\Models\EP010DR1980_BE_3Gang01\Input\EP010DR1980_BE_3Gang01_positions.trc
DataRate	CameraRate	NumFrames	NumMarkers	Units	OrigDataRate	OrigDataStartFrame	OrigNumFrames
100	100	4	41	m	100	90	103
Frame#	Time	LFHD			RFHD			LBHD			RBHD			C7			T10			CLAV			STRN			RBAK			LSHO			LUPA			LELB			LFRM			LWRA			LWRB			LFIN			RSHO			RUPA			RELB			RFRM			RWRA			RWRB			RFIN			LASI			RASI			LPSI			RPSI			LTHI			LKNE			LTIB			LANK			LTOE			LBTO			LHEE			RKNE			RTIB			RANK			RTOE			RBTO			RHEE			RTHI			
		X1	Y1	Z1	X2	Y2	Z2	X3	Y3	Z3	X4	Y4	Z4	X5	Y5	Z5	X6	Y6	Z6	X7	Y7	Z7	X8	Y8	Z8	X9	Y9	Z9	X10	Y10	Z10	X11	Y11	Z11	X12	Y12	Z12	X13	Y13	Z13	X14	Y14	Z14	X15	Y15	Z15	X16	Y16	Z16	X17	Y17	Z17	X18	Y18	Z18	X19	Y19	Z19	X20	Y20	Z20	X21	Y21	Z21	X22	Y22	Z22	X23	Y23	Z23	X24	Y24	Z24	X25	Y25	Z25	X26	Y26	Z26	X27	Y27	Z27	X28	Y28	Z28	X29	Y29	Z29	X30	Y30	Z30	X31	Y31	Z31	X32	Y32	Z32	X33	Y33	Z33	X34	Y34	Z34	X35	Y35	Z35	X36	Y36	Z36	X37	Y37	Z37	X38	Y38	Z38	X39	Y39	Z39	X40	Y40	Z40	X41	Y41	Z41	X42	Y42	Z42	X43	Y43	Z43	

91	0.9	0.251493637084961	1.72105334472656	0.032744432337144	0.380458984375	1.72810681152344	0.0286981676887064	0.247111618041992	1.64713635253906	0.170311937219956	0.397133758544922	1.65289184570312	0.162444749719956	0.330138854980469	1.54835876464844	0.219110887415269	0.309882293701172	1.27169506835938	0.29866099727855	0.311529876708984	1.41125354003906	0.0790582751105813	0.299292846679688	1.278439453125	0.0627383288215189	0.477310852050781	1.44259912109375	0.239057847864488	0.128104873657227	1.50717614746094	0.169305589563706	0.0762673645019531	1.36457458496094	0.173435838587144	0.031833911895752	1.17134326171875	0.173304979212144	0.030018518447876	0.930851501464844	0.116316575891831	0.0753858642578125	0.898553649902344	0.0990084704230814	0.0253477306365967	0.892993347167969	0.158130052454331	0.0321580924987793	0.8200537109375	0.0647162340949563	0.514705444335937	1.49766967773437	0.136757127649644	0.576356628417969	1.22882775878906	0.121520555384019	0.587651306152344	1.1354248046875	0.104429368860581	0.550406860351562	0.923023071289063	0.0287390612433938	0.491543823242187	0.894189208984375	-0.00327876102223112	0.542593322753906	0.868084045410156	0.0503271960090188	0.520747619628906	0.802450805664063	-0.0494204846550437	0.172309356689453	1.04564697265625	0.114640428430894	0.435369079589844	1.03900939941406	0.0853203600715189	0.279816772460938	1.08760278320312	0.278766221887925	0.346095947265625	1.08418151855469	0.268929429895738	0.133584655761719	0.67930810546875	0.0539796618293313	0.160282684326172	0.526643432617188	0.0121931628058938	0.155094833374023	0.373006042480469	-0.0306548596550436	0.201587844848633	0.0803898468017579	-0.108576734655044	0.187314208984375	0.0960320281982423	-0.261464307897231	0.199667373657227	0.114786407470703	-0.317268262975356	0.248256103515625	0.0286250381469727	-0.0653025647331686	0.414788879394531	0.509602905273438	0.273570543176988	0.413344543457031	0.355443481445313	0.327388475305894	0.345577423095703	0.0735463180541993	0.383657945520738	0.357665191650391	0.0387232246398926	0.225899522669175	0.342542419433594	0.0354774627685547	0.167527391321519	0.292483764648438	0.0436684379577637	0.438567064173081	0.443450927734375	0.661118225097656	0.2062610949348
92	0.91	0.250945373535156	1.71875512695312	0.0330237392350741	0.379973114013672	1.72593090820313	0.028910213844449	0.246738082885742	1.64466076660156	0.170540951149136	0.396753021240234	1.65051745605469	0.162580257789761	0.329880401611328	1.54603955078125	0.219164181129605	0.309963562011719	1.26927453613281	0.298602962867887	0.311350616455078	1.40886511230469	0.0789623378678865	0.299305725097656	1.27600512695312	0.0626206630631989	0.477208221435547	1.44043359375	0.238911312477262	0.127831939697266	1.5044892578125	0.169531551735074	0.0762876281738281	1.36173876953125	0.173840267555387	0.0320250358581543	1.168447265625	0.174145199196011	0.0300993041992187	0.927634704589844	0.118276790992887	0.0754869384765625	0.895175964355469	0.101175960914762	0.0253716526031494	0.890048217773438	0.160304012672574	0.0322824516296387	0.816320861816406	0.0674617275163241	0.514545471191406	1.49571618652344	0.136504452125699	0.576460083007812	1.22690612792969	0.120790707008511	0.587848876953125	1.13355358886719	0.103386654274136	0.550496887207031	0.921388977050781	0.0270387538835115	0.491577209472656	0.892695068359375	-0.00502264748367609	0.542765441894531	0.866421691894531	0.0484222988053864	0.52072802734375	0.801141479492188	-0.0515474277571135	0.172472869873047	1.04316882324219	0.114428890602261	0.435557434082031	1.03638537597656	0.085129940406949	0.280080871582031	1.08507897949219	0.278692501442105	0.346237701416016	1.08164562988281	0.268726986305387	0.133812316894531	0.674806762695313	0.0580609706803865	0.162690002441406	0.523330871582031	0.0142399257585115	0.157084716796875	0.371436859130859	-0.034263614280551	0.202551620483398	0.0825977096557618	-0.127267154319614	0.186525344848633	0.105052314758301	-0.279745181663364	0.198439224243164	0.126052680969238	-0.334850406272738	0.249640533447266	0.0286797885894776	-0.0869114414289884	0.414963317871094	0.508911590576172	0.278664059059293	0.413480773925781	0.355564392089844	0.33501647605148	0.345409149169922	0.0747442932128907	0.396437191383512	0.357486175537109	0.0385636100769044	0.239353084938199	0.341931854248047	0.0350982322692872	0.180848202125699	0.292335601806641	0.0456257820129395	0.451857845680386	0.443844512939453	0.659650085449219	0.209566585914762
93	0.92	0.250307083129883	1.71655432128906	0.0332786320705041	0.379393249511719	1.72385583496094	0.0291045598048791	0.246277099609375	1.64226501464844	0.170740179922067	0.396283172607422	1.64823254394531	0.162687811758004	0.32953466796875	1.54378186035156	0.219175604726754	0.309952606201172	1.26689367675781	0.298413702871285	0.311085083007813	1.40658471679688	0.0787841252345667	0.299221130371094	1.273693359375	0.0623737248439415	0.477013366699219	1.43832458496094	0.23871131029316	0.127465263366699	1.50187646484375	0.169701849843942	0.0762461395263672	1.35895935058594	0.174157538320504	0.032197582244873	1.16559533691406	0.174817206289254	0.0301964588165283	0.924472534179688	0.120036932851754	0.0756155319213867	0.891856384277344	0.103152655508004	0.0254095363616943	0.887159912109375	0.162274969961129	0.0324396514892578	0.8126591796875	0.070006171133004	0.514286682128906	1.49381237792969	0.136219794179879	0.576485168457031	1.22505883789063	0.120081244375192	0.587977172851562	1.13175073242187	0.102409003164254	0.550594665527344	0.919779113769531	0.0254989689845666	0.491639068603516	0.891189270019531	-0.00660906324199595	0.542954895019531	0.864795288085938	0.0467033146876916	0.520781127929688	0.799805725097656	-0.0534518366794958	0.172560317993164	1.04077197265625	0.113995428945504	0.435703491210937	1.03387292480469	0.0847811955470665	0.280237426757812	1.0826318359375	0.278443182851754	0.346279113769531	1.07918395996094	0.268354254629098	0.13407698059082	0.670660522460938	0.0615441350001915	0.164920623779297	0.520318786621094	0.0156997746486292	0.159123474121094	0.370047912597656	-0.037420098398246	0.203977279663086	0.0848795547485352	-0.142724785898246	0.18667578125	0.113086975097656	-0.294698540781059	0.19828173828125	0.135984848022461	-0.349148980234183	0.251391357421875	0.0291939239501954	-0.104869683359183	0.415276702880859	0.508276611328125	0.283252875234567	0.413805206298828	0.355831604003906	0.34222693529316	0.345480072021484	0.0762372970581055	0.409168646718942	0.3573759765625	0.038439136505127	0.25282215013691	0.341387786865234	0.0348396911621094	0.194232001211129	0.292450012207031	0.0480006752014161	0.465140936758004	0.444292144775391	0.658288635253906	0.212476996328317
94	0.93	0.249577621459961	1.71448205566406	0.0335071577184343	0.378716674804688	1.72191162109375	0.0292798627965591	0.245727905273437	1.63998413085938	0.170908769046559	0.395723358154297	1.64607189941406	0.162766557132497	0.329102722167969	1.54161608886719	0.219146562015309	0.30985205078125	1.26458325195313	0.298090958987966	0.31073193359375	1.40444714355469	0.0785244917028092	0.299037322998047	1.27154138183594	0.0619948286168717	0.476727203369141	1.43630261230469	0.238458024417653	0.127005790710449	1.49937280273438	0.169818559085622	0.0761401519775391	1.35627282714844	0.174391435062184	0.03235009765625	1.16282312011719	0.175322587405934	0.030309886932373	0.921401611328125	0.121592118655934	0.0757700042724609	0.88863427734375	0.104927689944997	0.0254647445678711	0.884364501953125	0.164036942874684	0.0326238403320313	0.809111938476563	0.0723379682653091	0.513928588867188	1.49198742675781	0.135905229007497	0.576431091308594	1.22331591796875	0.119393754398122	0.588035461425781	1.1300458984375	0.101500077640309	0.550700866699219	0.91822021484375	0.0241294721715593	0.491729827880859	0.889696899414063	-0.00802555712531583	0.543161437988281	0.86323046875	0.0451826948278091	0.520906311035156	0.798466430664063	-0.0551190629846907	0.172575103759766	1.03850280761719	0.113333817874684	0.435808227539063	1.03150170898437	0.0842669233434341	0.280290283203125	1.08029516601563	0.278010941898122	0.346226470947266	1.07683032226563	0.267805558597341	0.134493423461914	0.667083984375	0.0640934614293718	0.166962112426758	0.517673767089844	0.0164534467809343	0.161211517333984	0.368771392822266	-0.0401482377893783	0.20594416809082	0.0867675323486329	-0.154676313961253	0.187892608642578	0.119528282165527	-0.306159712398753	0.199326675415039	0.143920562744141	-0.360054854000316	0.253585662841797	0.0297016868591309	-0.118796675289378	0.415747619628906	0.507709625244141	0.287303666507497	0.414334259033203	0.356258941650391	0.348998490726247	0.345813446044922	0.0780660858154297	0.421842790042653	0.357339385986328	0.0383486976623536	0.266296952640309	0.340926025390625	0.0346607742309571	0.207674394046559	0.292842712402344	0.0508492279052735	0.478408830081716	0.444794769287109	0.657046752929688	0.214961869632497
